<mxfile host="Electron" modified="2023-08-15T09:52:34.327Z" agent="Mozilla/5.0 (Windows NT 10.0; Win64; x64) AppleWebKit/537.36 (KHTML, like Gecko) draw.io/21.6.8 Chrome/114.0.5735.289 Electron/25.5.0 Safari/537.36" etag="vm5PliDqwRmI6SxETJ5H" version="21.6.8" type="device">
  <diagram id="C5RBs43oDa-KdzZeNtuy" name="Page-1">
    <mxGraphModel dx="1294" dy="952" grid="1" gridSize="10" guides="1" tooltips="1" connect="1" arrows="1" fold="1" page="1" pageScale="1" pageWidth="827" pageHeight="1169" math="0" shadow="0">
      <root>
        <mxCell id="WIyWlLk6GJQsqaUBKTNV-0" />
        <mxCell id="WIyWlLk6GJQsqaUBKTNV-1" parent="WIyWlLk6GJQsqaUBKTNV-0" />
        <mxCell id="Verm1fTYL_2NaQNkpatf-1" value="&lt;h1&gt;&lt;span style=&quot;background-color: initial;&quot;&gt;Insription&lt;/span&gt;&lt;/h1&gt;&lt;h1&gt;&lt;br&gt;&lt;/h1&gt;" style="text;html=1;strokeColor=none;fillColor=none;spacing=5;spacingTop=-20;whiteSpace=wrap;overflow=hidden;rounded=0;" vertex="1" parent="WIyWlLk6GJQsqaUBKTNV-1">
          <mxGeometry x="360" y="10" width="131" height="60" as="geometry" />
        </mxCell>
        <mxCell id="Verm1fTYL_2NaQNkpatf-6" value="" style="edgeStyle=orthogonalEdgeStyle;rounded=0;orthogonalLoop=1;jettySize=auto;html=1;" edge="1" parent="WIyWlLk6GJQsqaUBKTNV-1" source="Verm1fTYL_2NaQNkpatf-2" target="Verm1fTYL_2NaQNkpatf-5">
          <mxGeometry relative="1" as="geometry" />
        </mxCell>
        <mxCell id="Verm1fTYL_2NaQNkpatf-2" value="Begin" style="ellipse;whiteSpace=wrap;html=1;" vertex="1" parent="WIyWlLk6GJQsqaUBKTNV-1">
          <mxGeometry x="363" y="100" width="114" height="60" as="geometry" />
        </mxCell>
        <mxCell id="Verm1fTYL_2NaQNkpatf-4" value="End" style="ellipse;whiteSpace=wrap;html=1;" vertex="1" parent="WIyWlLk6GJQsqaUBKTNV-1">
          <mxGeometry x="363" y="800" width="114" height="60" as="geometry" />
        </mxCell>
        <mxCell id="Verm1fTYL_2NaQNkpatf-8" value="" style="edgeStyle=orthogonalEdgeStyle;rounded=0;orthogonalLoop=1;jettySize=auto;html=1;" edge="1" parent="WIyWlLk6GJQsqaUBKTNV-1" source="Verm1fTYL_2NaQNkpatf-5" target="Verm1fTYL_2NaQNkpatf-7">
          <mxGeometry relative="1" as="geometry" />
        </mxCell>
        <mxCell id="Verm1fTYL_2NaQNkpatf-5" value="Page accueil&lt;br&gt;&amp;nbsp;(logged out)" style="rounded=0;whiteSpace=wrap;html=1;" vertex="1" parent="WIyWlLk6GJQsqaUBKTNV-1">
          <mxGeometry x="360" y="200" width="120" height="40" as="geometry" />
        </mxCell>
        <mxCell id="Verm1fTYL_2NaQNkpatf-11" value="" style="edgeStyle=orthogonalEdgeStyle;rounded=0;orthogonalLoop=1;jettySize=auto;html=1;" edge="1" parent="WIyWlLk6GJQsqaUBKTNV-1" source="Verm1fTYL_2NaQNkpatf-7" target="Verm1fTYL_2NaQNkpatf-9">
          <mxGeometry relative="1" as="geometry" />
        </mxCell>
        <mxCell id="Verm1fTYL_2NaQNkpatf-7" value="Click &quot;inscription&quot;" style="rounded=0;whiteSpace=wrap;html=1;" vertex="1" parent="WIyWlLk6GJQsqaUBKTNV-1">
          <mxGeometry x="360" y="280" width="120" height="40" as="geometry" />
        </mxCell>
        <mxCell id="Verm1fTYL_2NaQNkpatf-20" style="edgeStyle=orthogonalEdgeStyle;rounded=0;orthogonalLoop=1;jettySize=auto;html=1;entryX=0.5;entryY=0;entryDx=0;entryDy=0;" edge="1" parent="WIyWlLk6GJQsqaUBKTNV-1" source="Verm1fTYL_2NaQNkpatf-9" target="Verm1fTYL_2NaQNkpatf-19">
          <mxGeometry relative="1" as="geometry" />
        </mxCell>
        <mxCell id="Verm1fTYL_2NaQNkpatf-9" value="Afficher un formulaire" style="rounded=0;whiteSpace=wrap;html=1;" vertex="1" parent="WIyWlLk6GJQsqaUBKTNV-1">
          <mxGeometry x="360" y="360" width="120" height="40" as="geometry" />
        </mxCell>
        <mxCell id="Verm1fTYL_2NaQNkpatf-10" value="Nom, prenom" style="shape=parallelogram;perimeter=parallelogramPerimeter;whiteSpace=wrap;html=1;fixedSize=1;" vertex="1" parent="WIyWlLk6GJQsqaUBKTNV-1">
          <mxGeometry x="80" y="440" width="120" height="40" as="geometry" />
        </mxCell>
        <mxCell id="Verm1fTYL_2NaQNkpatf-13" value="Email" style="shape=parallelogram;perimeter=parallelogramPerimeter;whiteSpace=wrap;html=1;fixedSize=1;" vertex="1" parent="WIyWlLk6GJQsqaUBKTNV-1">
          <mxGeometry x="240" y="440" width="120" height="40" as="geometry" />
        </mxCell>
        <mxCell id="Verm1fTYL_2NaQNkpatf-15" value="RÃ´le(s)" style="shape=parallelogram;perimeter=parallelogramPerimeter;whiteSpace=wrap;html=1;fixedSize=1;" vertex="1" parent="WIyWlLk6GJQsqaUBKTNV-1">
          <mxGeometry x="480" y="440" width="120" height="40" as="geometry" />
        </mxCell>
        <mxCell id="Verm1fTYL_2NaQNkpatf-17" value="Mot de passe" style="shape=parallelogram;perimeter=parallelogramPerimeter;whiteSpace=wrap;html=1;fixedSize=1;" vertex="1" parent="WIyWlLk6GJQsqaUBKTNV-1">
          <mxGeometry x="640" y="440" width="120" height="40" as="geometry" />
        </mxCell>
        <mxCell id="Verm1fTYL_2NaQNkpatf-27" value="" style="edgeStyle=orthogonalEdgeStyle;rounded=0;orthogonalLoop=1;jettySize=auto;html=1;" edge="1" parent="WIyWlLk6GJQsqaUBKTNV-1" source="Verm1fTYL_2NaQNkpatf-19" target="Verm1fTYL_2NaQNkpatf-26">
          <mxGeometry relative="1" as="geometry" />
        </mxCell>
        <mxCell id="Verm1fTYL_2NaQNkpatf-19" value="Valider formulaire" style="rounded=0;whiteSpace=wrap;html=1;" vertex="1" parent="WIyWlLk6GJQsqaUBKTNV-1">
          <mxGeometry x="360" y="520" width="120" height="40" as="geometry" />
        </mxCell>
        <mxCell id="Verm1fTYL_2NaQNkpatf-21" value="" style="endArrow=none;dashed=1;html=1;rounded=0;exitX=0.5;exitY=0;exitDx=0;exitDy=0;" edge="1" parent="WIyWlLk6GJQsqaUBKTNV-1" source="Verm1fTYL_2NaQNkpatf-10">
          <mxGeometry width="50" height="50" relative="1" as="geometry">
            <mxPoint x="310" y="430" as="sourcePoint" />
            <mxPoint x="360" y="380" as="targetPoint" />
            <Array as="points">
              <mxPoint x="140" y="380" />
            </Array>
          </mxGeometry>
        </mxCell>
        <mxCell id="Verm1fTYL_2NaQNkpatf-22" value="" style="endArrow=none;dashed=1;html=1;rounded=0;" edge="1" parent="WIyWlLk6GJQsqaUBKTNV-1">
          <mxGeometry width="50" height="50" relative="1" as="geometry">
            <mxPoint x="300" y="440" as="sourcePoint" />
            <mxPoint x="300" y="380" as="targetPoint" />
          </mxGeometry>
        </mxCell>
        <mxCell id="Verm1fTYL_2NaQNkpatf-23" value="" style="endArrow=none;dashed=1;html=1;rounded=0;entryX=1;entryY=0.5;entryDx=0;entryDy=0;exitX=0.5;exitY=0;exitDx=0;exitDy=0;" edge="1" parent="WIyWlLk6GJQsqaUBKTNV-1" source="Verm1fTYL_2NaQNkpatf-17" target="Verm1fTYL_2NaQNkpatf-9">
          <mxGeometry width="50" height="50" relative="1" as="geometry">
            <mxPoint x="660" y="440" as="sourcePoint" />
            <mxPoint x="710" y="390" as="targetPoint" />
            <Array as="points">
              <mxPoint x="700" y="380" />
            </Array>
          </mxGeometry>
        </mxCell>
        <mxCell id="Verm1fTYL_2NaQNkpatf-24" value="" style="endArrow=none;dashed=1;html=1;rounded=0;exitX=0.5;exitY=0;exitDx=0;exitDy=0;" edge="1" parent="WIyWlLk6GJQsqaUBKTNV-1" source="Verm1fTYL_2NaQNkpatf-15">
          <mxGeometry width="50" height="50" relative="1" as="geometry">
            <mxPoint x="510" y="450" as="sourcePoint" />
            <mxPoint x="540" y="380" as="targetPoint" />
          </mxGeometry>
        </mxCell>
        <mxCell id="Verm1fTYL_2NaQNkpatf-29" value="" style="edgeStyle=orthogonalEdgeStyle;rounded=0;orthogonalLoop=1;jettySize=auto;html=1;" edge="1" parent="WIyWlLk6GJQsqaUBKTNV-1" source="Verm1fTYL_2NaQNkpatf-26" target="Verm1fTYL_2NaQNkpatf-28">
          <mxGeometry relative="1" as="geometry" />
        </mxCell>
        <mxCell id="Verm1fTYL_2NaQNkpatf-31" value="" style="edgeStyle=orthogonalEdgeStyle;rounded=0;orthogonalLoop=1;jettySize=auto;html=1;" edge="1" parent="WIyWlLk6GJQsqaUBKTNV-1" source="Verm1fTYL_2NaQNkpatf-26" target="Verm1fTYL_2NaQNkpatf-30">
          <mxGeometry relative="1" as="geometry" />
        </mxCell>
        <mxCell id="Verm1fTYL_2NaQNkpatf-26" value="Valide ?" style="rhombus;whiteSpace=wrap;html=1;" vertex="1" parent="WIyWlLk6GJQsqaUBKTNV-1">
          <mxGeometry x="380" y="600" width="80" height="80" as="geometry" />
        </mxCell>
        <mxCell id="Verm1fTYL_2NaQNkpatf-35" style="edgeStyle=orthogonalEdgeStyle;rounded=0;orthogonalLoop=1;jettySize=auto;html=1;exitX=1;exitY=0.5;exitDx=0;exitDy=0;entryX=0.5;entryY=0;entryDx=0;entryDy=0;" edge="1" parent="WIyWlLk6GJQsqaUBKTNV-1" source="Verm1fTYL_2NaQNkpatf-28" target="Verm1fTYL_2NaQNkpatf-9">
          <mxGeometry relative="1" as="geometry">
            <Array as="points">
              <mxPoint x="800" y="640" />
              <mxPoint x="800" y="340" />
              <mxPoint x="420" y="340" />
            </Array>
          </mxGeometry>
        </mxCell>
        <mxCell id="Verm1fTYL_2NaQNkpatf-28" value="Message d&#39;erreur" style="whiteSpace=wrap;html=1;" vertex="1" parent="WIyWlLk6GJQsqaUBKTNV-1">
          <mxGeometry x="520" y="620" width="120" height="40" as="geometry" />
        </mxCell>
        <mxCell id="Verm1fTYL_2NaQNkpatf-38" value="" style="edgeStyle=orthogonalEdgeStyle;rounded=0;orthogonalLoop=1;jettySize=auto;html=1;" edge="1" parent="WIyWlLk6GJQsqaUBKTNV-1" source="Verm1fTYL_2NaQNkpatf-30" target="Verm1fTYL_2NaQNkpatf-4">
          <mxGeometry relative="1" as="geometry" />
        </mxCell>
        <mxCell id="Verm1fTYL_2NaQNkpatf-30" value="Page d&#39;accueil&amp;nbsp;&lt;br&gt;(logged in)" style="rounded=0;whiteSpace=wrap;html=1;" vertex="1" parent="WIyWlLk6GJQsqaUBKTNV-1">
          <mxGeometry x="360" y="720" width="120" height="40" as="geometry" />
        </mxCell>
        <mxCell id="Verm1fTYL_2NaQNkpatf-36" value="Non" style="text;html=1;strokeColor=none;fillColor=none;align=center;verticalAlign=middle;whiteSpace=wrap;rounded=0;" vertex="1" parent="WIyWlLk6GJQsqaUBKTNV-1">
          <mxGeometry x="450" y="610" width="60" height="30" as="geometry" />
        </mxCell>
        <mxCell id="Verm1fTYL_2NaQNkpatf-37" value="Oui" style="text;html=1;strokeColor=none;fillColor=none;align=center;verticalAlign=middle;whiteSpace=wrap;rounded=0;" vertex="1" parent="WIyWlLk6GJQsqaUBKTNV-1">
          <mxGeometry x="414" y="680" width="60" height="30" as="geometry" />
        </mxCell>
      </root>
    </mxGraphModel>
  </diagram>
</mxfile>
